<?xml version="1.0" encoding="UTF-8"?>
<!-- Generator: Adobe Illustrator 24.0.2, SVG Export Plug-In . SVG Version: 6.00 Build 0)  -->
<svg enable-background="new 0 0 24 24" version="1.1" viewBox="0 0 24 24" xml:space="preserve" xmlns="http://www.w3.org/2000/svg">
<style type="text/css">
	.st0{fill:none;}
	.st1{fill:#ce0202;}
</style>
<g id="bounding_area">
	<rect class="st0" width="24" height="24"/>
</g>
<g id="design">
	
		<path class="st1" d="m18.9 4.76c-1.94-1.84-4.48-2.82-7.14-2.76-2.67 0.07-5.16 1.17-7 3.1-1.84 1.94-2.82 4.47-2.76 7.14 0.07 2.67 1.17 5.16 3.1 7 1.88 1.79 4.31 2.76 6.89 2.76h0.25c2.67-0.07 5.16-1.17 7-3.1 1.79-1.88 2.76-4.32 2.76-6.91v-0.23c-0.07-2.67-1.17-5.16-3.1-7zm-0.75 13.1c-1.56 1.65-3.67 2.58-5.94 2.64-2.26 0.05-4.43-0.78-6.07-2.35-1.65-1.56-2.58-3.67-2.64-5.94-0.05-2.27 0.78-4.43 2.35-6.07 1.56-1.65 3.67-2.58 5.94-2.64h0.22c2.19 0 4.26 0.83 5.85 2.35 0.82 0.78 1.47 1.7 1.92 2.7 0.44 1.01 0.69 2.11 0.72 3.24 0.05 2.27-0.78 4.43-2.35 6.07z"/>
		<path class="st1" d="m15.78 14.72c0.29 0.29 0.29 0.77 0 1.06-0.15 0.15-0.34 0.22-0.53 0.22s-0.38-0.07-0.53-0.22l-2.72-2.72-2.72 2.72c-0.15 0.15-0.34 0.22-0.53 0.22s-0.38-0.07-0.53-0.22c-0.29-0.29-0.29-0.77 0-1.06l2.72-2.72-2.72-2.72c-0.29-0.29-0.29-0.77 0-1.06s0.77-0.29 1.06 0l2.72 2.72 2.72-2.72c0.29-0.29 0.77-0.29 1.06 0s0.29 0.77 0 1.06l-2.72 2.72 2.72 2.72z"/>
	
</g>
</svg>
