<?xml version="1.0" encoding="UTF-8"?>
<svg viewBox="0 0 598.93842 598.8775" xmlns="http://www.w3.org/2000/svg">
 <path transform="matrix(.84528 0 0 .84519 -9.6603 -10.448)" d="m11.429 366.22a354.29 354.29 0 1 1 -2.6e-4 0.4295" fill="#f12a17" fill-rule="evenodd"/>
 <path transform="matrix(1.3648 -.00892 .00892 1.3648 271.65 121.3)" d="m-188.57 60.934c0.04118-0.12526 160.15 1.6636 160.26 1.5864s48.944-152.57 49.076-152.57 47.908 152.83 48.014 152.91 160.23-0.59781 160.27-0.47226-130.54 92.789-130.58 92.914 50.081 152.2 49.974 152.28-128.59-95.481-128.72-95.481-129.27 94.662-129.38 94.584 51.072-151.8 51.032-151.92-129.98-93.695-129.94-93.82z"/>
</svg>
