<?xml version="1.0" encoding="UTF-8"?>
<svg version="1.1" viewBox="0 0 598.94 598.88" xmlns="http://www.w3.org/2000/svg">
 <defs>
  <clipPath id="clipPath1032">
   <rect x="298.83" y="28.125" width="285.63" height="542.63" fill="#f7e213" stroke-width="1.8142"/>
  </clipPath>
 </defs>
 <path d="m14.479 236.05c0.05509-0.17132 218.59 0.84195 218.74 0.7356 0.14944-0.10634 65.438-208.66 65.618-208.67 0.18015-0.0012 66.748 208.16 66.893 208.26 0.14538 0.10824 218.68-2.2451 218.73-2.0742 0.0557 0.171-177.33 127.8-177.39 127.97-0.0535 0.17095 69.708 207.28 69.563 207.39s-176.35-129.17-176.53-129.16c-0.17742 1e-3 -175.58 130.35-175.73 130.24-0.15083-0.10548 68.349-207.63 68.293-207.8s-178.23-126.72-178.18-126.89z" fill="#f7e213" stroke-width="1.3648"/>
 <path transform="matrix(.9965 0 0 .9965 1.0464 .098469)" d="m14.479 236.05c0.05509-0.17132 218.59 0.84195 218.74 0.7356 0.14944-0.10634 65.438-208.66 65.618-208.67 0.18015-0.0012 66.748 208.16 66.893 208.26 0.14538 0.10824 218.68-2.2451 218.73-2.0742 0.0557 0.171-177.33 127.8-177.39 127.97-0.0535 0.17095 69.708 207.28 69.563 207.39s-176.35-129.17-176.53-129.16c-0.17742 1e-3 -175.58 130.35-175.73 130.24-0.15083-0.10548 68.349-207.63 68.293-207.8s-178.23-126.72-178.18-126.89z" clip-path="url(#clipPath1032)" fill="#f7e213" stroke-width="1.3648"/>
</svg>
