<?xml version="1.0" encoding="UTF-8"?>
<svg width="283.5pt" height="283.5pt" version="1.1" viewBox="0 0 283.5 283.5" xmlns="http://www.w3.org/2000/svg">
 <defs>
  <clipPath id="clipPath18651">
   <rect transform="rotate(179.99)" x="-270.6" y="-120.66" width="46.015" height="38.683" fill="#d32a2a" opacity=".2633" stroke="#e3e3e3" stroke-width=".11137"/>
  </clipPath>
 </defs>
 <g fill-opacity="0">
  <path d="m0 0h283.5v283.5h-283.5v-283.5z" fill-opacity="0"/>
 </g>
 <path d="m400.79 27.873-400.78-0.2005-0.0074506 127.42 400.78 0.20049z" fill="none" fill-opacity=".55794" stroke-width="2.628"/>
 <path d="m400.79 27.873-400.79 127.22 400.78 0.20049z" fill="none" fill-opacity=".35193" stroke-width="2.628"/>
 <g transform="matrix(-6.161 -.0012535 .0010537 -7.3289 1667.2 884.33)" clip-path="url(#clipPath18651)" fill="#259fc0">
  <path d="m79.241 105.65h-1.4504v-8.7027h1.4504z"/>
  <path d="m57.485 105.65h-1.4504v-8.7027h1.4504z"/>
  <path d="m61.836 101.3h-1.4504v-4.3517h1.4504z"/>
  <path d="m66.187 101.3h-1.4504v-4.3517h1.4504z"/>
  <path d="m70.538 101.3h-1.4504v-4.3517h1.4504z"/>
  <path d="m74.89 101.3h-1.4504v-4.3517h1.4504z"/>
  <path d="m35.729 105.65h-1.4504v-8.7027h1.4504z"/>
  <path d="m40.08 101.3h-1.4504v-4.3517h1.4504z"/>
  <path d="m44.431 101.3h-1.4504v-4.3517h1.4504z"/>
  <path d="m48.782 101.3h-1.4503v-4.3517h1.4503z"/>
  <path d="m53.134 101.3h-1.4504v-4.3517h1.4504z"/>
  <path d="m15.423 105.65h-1.4504v-8.7027h1.4504z"/>
  <path d="m19.774 101.3h-1.4504v-4.3517h1.4504z"/>
  <path d="m24.125 101.3h-1.4504v-4.3517h1.4504z"/>
  <path d="m28.476 101.3h-1.4504v-4.3517h1.4504z"/>
  <path d="m32.828 101.3h-1.4505v-4.3517h1.4505z"/>
  <path d="m143.02 105.65h-1.45v-8.7027h1.45z"/>
  <path d="m121.26 105.65h-1.45v-8.7027h1.45z"/>
  <path d="m125.61 101.3h-1.45v-4.3517h1.45z"/>
  <path d="m129.96 101.3h-1.45v-4.3517h1.45z"/>
  <path d="m134.32 101.3h-1.451v-4.3517h1.451z"/>
  <path d="m138.67 101.3h-1.451v-4.3517h1.451z"/>
  <path d="m99.505 105.65h-1.4504v-8.7027h1.4504z"/>
  <path d="m103.86 101.3h-1.45v-4.3517h1.45z"/>
  <path d="m108.21 101.3h-1.45v-4.3517h1.45z"/>
  <path d="m112.56 101.3h-1.451v-4.3517h1.451z"/>
  <path d="m116.91 101.3h-1.451v-4.3517h1.451z"/>
  <path d="m83.55 101.3h-1.4504v-4.3517h1.4504z"/>
  <path d="m87.902 101.3h-1.4504v-4.3517h1.4504z"/>
  <path d="m92.253 101.3h-1.4504v-4.3517h1.4504z"/>
  <path d="m96.604 101.3h-1.4504v-4.3517h1.4504z"/>
  <path d="m206.84 105.65h-1.45v-8.7027h1.45z"/>
  <path d="m185.08 105.65h-1.45v-8.7027h1.45z"/>
  <path d="m189.43 101.3h-1.451v-4.3517h1.451z"/>
  <path d="m193.78 101.3h-1.451v-4.3517h1.451z"/>
  <path d="m198.14 101.3h-1.45v-4.3517h1.45z"/>
  <path d="m202.49 101.3h-1.45v-4.3517h1.45z"/>
  <path d="m163.33 105.65h-1.45v-8.7027h1.45z"/>
  <path d="m167.68 101.3h-1.45v-4.3517h1.45z"/>
  <path d="m172.03 101.3h-1.451v-4.3517h1.451z"/>
  <path d="m176.38 101.3h-1.451v-4.3517h1.451z"/>
  <path d="m180.73 101.3h-1.45v-4.3517h1.45z"/>
  <path d="m147.37 101.3h-1.451v-4.3517h1.451z"/>
  <path d="m151.72 101.3h-1.45v-4.3517h1.45z"/>
  <path d="m156.07 101.3h-1.45v-4.3517h1.45z"/>
  <path d="m160.42 101.3h-1.45v-4.3517h1.45z"/>
  <path d="m270.62 105.65h-1.451v-8.7027h1.451z"/>
  <path d="m248.86 105.65h-1.451v-8.7027h1.451z"/>
  <path d="m253.21 101.3h-1.451v-4.3517h1.451z"/>
  <path d="m257.56 101.3h-1.45v-4.3517h1.45z"/>
  <path d="m261.91 101.3h-1.45v-4.3517h1.45z"/>
  <path d="m266.26 101.3h-1.45v-4.3517h1.45z"/>
  <path d="m227.1 105.65h-1.45v-8.7027h1.45z"/>
  <path d="m231.45 101.3h-1.451v-4.3517h1.451z"/>
  <path d="m235.8 101.3h-1.451v-4.3517h1.451z"/>
  <path d="m240.16 101.3h-1.45v-4.3517h1.45z"/>
  <path d="m244.51 101.3h-1.45v-4.3517h1.45z"/>
  <path d="m211.15 101.3h-1.45v-4.3517h1.45z"/>
  <path d="m215.5 101.3h-1.45v-4.3517h1.45z"/>
  <path d="m219.85 101.3h-1.45v-4.3517h1.45z"/>
  <path d="m224.2 101.3h-1.451v-4.3517h1.451z"/>
 </g>
</svg>
