<?xml version="1.0" encoding="UTF-8"?>
<svg width="216.62" height="103.24" version="1.1" viewBox="-.124 -.82 216.62 103.24" xmlns="http://www.w3.org/2000/svg">
 <g transform="matrix(.9819 0 0 1.0184 -267.67 -25.973)" fill="#259fc0">
  <path d="m295.88 124.41-23.405-98.035h20.262l14.779 67.34 17.922-67.34h23.539l17.186 68.477 15.046-68.477h19.928l-23.807 98.035h-20.998l-19.527-73.292-19.46 73.292z"/>
  <path d="m473.9 88.362 19.192 6.0854c-2.9425 10.7-7.8353 18.646-14.678 23.84-6.8433 5.1937-15.526 7.7906-26.047 7.7906-13.018 0-23.717-4.447-32.099-13.341-8.3813-8.894-12.572-21.054-12.572-36.479-1e-5 -16.317 4.2129-28.989 12.639-38.017 8.4259-9.0277 19.504-13.542 33.235-13.542 11.992 1e-4 21.733 3.5443 29.223 10.633 4.4581 4.1907 7.8017 10.209 10.031 18.055l-19.594 4.6811c-1.1592-5.0822-3.5777-9.0945-7.2556-12.037-3.678-2.9423-8.1473-4.4135-13.408-4.4136-7.2668 8.3e-5 -13.163 2.6081-17.688 7.824-4.525 5.2161-6.7876 13.664-6.7875 25.345-3e-5 12.394 2.229 21.221 6.6872 26.481 4.4581 5.2606 10.254 7.8909 17.387 7.8909 5.2606 2e-5 9.7856-1.6718 13.575-5.0154s6.5088-8.6042 8.1584-15.782z"/>
 </g>
</svg>
